<?xml version="1.0" standalone="no"?>
<!DOCTYPE svg PUBLIC "-//W3C//DTD SVG 20010904//EN"
 "http://www.w3.org/TR/2001/REC-SVG-20010904/DTD/svg10.dtd">
<svg version="1.0" xmlns="http://www.w3.org/2000/svg"
 width="1024.000000pt" height="1024.000000pt" viewBox="0 0 1024.000000 1024.000000"
 preserveAspectRatio="xMidYMid meet">
<metadata>
Created by potrace 1.11, written by Peter Selinger 2001-2013
</metadata>
<g transform="translate(0.000000,1024.000000) scale(0.100000,-0.100000)"
fill="#000000" stroke="none">
<path d="M905 9226 c0 -195 3 -357 6 -360 3 -3 133 -6 290 -6 261 -1 291 -3
371 -24 53 -14 102 -34 124 -51 42 -32 89 -103 107 -160 9 -31 12 -465 12
-1920 0 -1034 -3 -1896 -6 -1916 -7 -39 -49 -134 -71 -159 -26 -31 -81 -63
-141 -83 -56 -18 -92 -20 -362 -23 -165 -1 -307 -3 -315 -3 -13 -1 -15 -46
-15 -348 l0 -348 1348 -3 1347 -2 -2 351 -3 351 -280 3 c-289 3 -330 8 -418
50 -103 49 -160 159 -166 320 -5 147 -6 3335 0 3335 3 0 20 -37 38 -82 19 -46
39 -96 46 -113 7 -16 40 -97 73 -180 33 -82 116 -289 185 -460 69 -170 204
-508 301 -750 97 -242 181 -449 186 -460 9 -19 159 -392 376 -935 52 -129 98
-244 104 -255 11 -24 144 -357 172 -430 10 -27 26 -64 33 -82 8 -17 15 -34 15
-37 0 -3 9 -25 19 -49 11 -23 68 -162 127 -310 l106 -267 326 2 c277 3 326 5
333 18 4 8 47 110 94 225 82 197 206 496 225 540 5 11 23 54 40 95 17 41 42
100 55 130 13 30 69 165 125 300 56 135 108 258 115 275 8 16 59 140 115 275
56 135 107 259 115 275 7 17 82 194 165 395 84 201 158 379 165 395 8 17 26
59 40 95 15 36 35 83 44 105 10 22 26 60 36 85 10 25 24 59 31 75 7 17 105
253 219 525 113 272 212 509 220 525 22 46 22 -3280 0 -3373 -27 -115 -79
-183 -169 -221 -72 -31 -115 -35 -419 -36 -163 -1 -301 -5 -305 -9 -4 -4 -7
-163 -7 -352 l0 -344 1627 0 1628 0 0 350 c0 273 -3 350 -12 351 -7 0 -141 1
-298 3 -286 3 -327 7 -415 43 -94 40 -142 99 -171 213 -15 59 -16 225 -16
1920 1 2018 -2 1905 56 2004 41 69 120 116 233 137 87 16 107 17 376 18 l247
1 0 360 0 360 -1357 -2 -1357 -3 -88 -215 c-49 -118 -107 -260 -130 -315 -23
-55 -49 -118 -58 -140 -10 -22 -43 -103 -74 -180 -32 -77 -63 -153 -71 -170
-7 -16 -60 -145 -118 -285 -58 -140 -132 -320 -165 -400 -33 -80 -135 -327
-227 -550 -91 -223 -172 -418 -180 -435 -7 -16 -34 -82 -60 -145 -25 -63 -52
-128 -60 -145 -7 -16 -34 -82 -60 -145 -25 -63 -53 -129 -61 -147 -8 -17 -14
-34 -14 -37 0 -3 -13 -34 -29 -68 -15 -35 -34 -80 -40 -100 -7 -21 -14 -38
-17 -38 -5 0 -15 25 -141 335 -58 143 -111 274 -118 290 -8 17 -53 127 -100
245 -175 434 -408 1006 -426 1047 -10 23 -19 46 -19 51 0 5 -6 22 -14 38 -8
16 -92 220 -186 454 -95 234 -176 433 -182 443 -5 10 -11 26 -13 35 -4 17
-166 418 -185 457 -5 11 -18 43 -29 70 l-19 50 -1413 3 -1414 2 0 -354z"/>
<path d="M2257 2824 c-1 -1 -36 -4 -78 -7 -104 -8 -266 -43 -369 -79 -404
-143 -688 -418 -786 -763 -25 -87 -28 -117 -28 -235 0 -153 20 -248 79 -377
124 -268 394 -502 708 -612 104 -36 222 -67 292 -77 28 -3 73 -10 100 -15 79
-13 5939 -5 6000 8 28 6 66 14 85 18 213 38 445 142 618 277 250 195 396 462
407 742 15 396 -229 760 -648 965 -101 49 -265 105 -372 125 -44 9 -93 19
-110 22 -25 6 -5891 14 -5898 8z"/>
</g>
</svg>
